# xmcd CD database file
#
# Track frame offsets:
#	150
#	31247
#	63563
#	88919
#	103749
#	129279
#	164254
#	206978
#	230188
#
# Disc length: 3355 seconds
#
# Revision: 0
# Processed by: cddbd v1.5.2PL0 Copyright (c) Steve Scherf et al.
# Submitted via: CDex 1.70beta2
#
DISCID=800d1909
DTITLE=Phil Woods - Captain Blued (Modern Jazz Archive)
DYEAR=1900
DGENRE=Jazz
TTITLE0=Caribe
TTITLE1=Friday Night At The Cadillac Club
TTITLE2=Quilombo
TTITLE3=Barbados
TTITLE4=Colo De Rio
TTITLE5=Palisades In Blue
TTITLE6=Wamba
TTITLE7=Opal 
TTITLE8=Captain Blued
EXTD=
EXTT0=
EXTT1=
EXTT2=
EXTT3=
EXTT4=
EXTT5=
EXTT6=
EXTT7=
EXTT8=
PLAYORDER=
